<?xml version="1.0" encoding="utf-8"?>
<!-- Generator: Adobe Illustrator 15.1.0, SVG Export Plug-In . SVG Version: 6.00 Build 0)  -->
<!DOCTYPE svg PUBLIC "-//W3C//DTD SVG 1.1//EN" "http://www.w3.org/Graphics/SVG/1.1/DTD/svg11.dtd">
<svg version="1.1" id="Layer_1" xmlns="http://www.w3.org/2000/svg" xmlns:xlink="http://www.w3.org/1999/xlink" x="0px" y="0px"
	 width="71.5px" height="70.231px" viewBox="0 0 71.5 70.231" enable-background="new 0 0 71.5 70.231" xml:space="preserve">
<g>
	<defs>
		<rect id="SVGID_1_" y="0" width="71.5" height="70.231"/>
	</defs>
	<clipPath id="SVGID_2_">
		<use xlink:href="#SVGID_1_"  overflow="visible"/>
	</clipPath>
	<path clip-path="url(#SVGID_2_)" fill="#27AAE1" d="M40.488,4.547c-1.172-0.671-6.206-1.374-6.206-1.374l-9,0.086l-5.836,3.998
		l-1.83,6.084L27.7,15.424l-0.229-0.772c7.375-10.75,15.969-0.625,15.969-0.625l-0.157,0.438l0.313,3.844l5.416,1.281
		c0,0,4.687-3.687,0-8.708C44.323,5.86,40.488,4.547,40.488,4.547"/>
	<path clip-path="url(#SVGID_2_)" fill="#FFFFFF" d="M66.319,6.572c-11.766-8.232-22.947,9.497-39.703,7.07
		C9.861,11.214,25.527-0.017,39.792,4.265c0,0-17.447-9.311-30.256-0.417c-12.808,8.898-9.929,15.769-7.153,27.595
		c2.779,11.828,8.167,26.293,8.167,26.293s4.234,12.274,10.504,12.31c0,0,8.524,0.993,13.459-7.946c0,0,0.48-0.944,1.174-1.123
		c0.011-0.004,0.03-0.011,0.056-0.023c0.008,0.014,0.015,0.02,0.023,0.023c0.692,0.188,1.16,1.136,1.16,1.136
		c4.834,8.995,13.37,8.095,13.37,8.095c6.271,0.033,10.64-12.191,10.64-12.191s4.947-12.846,7.948-24.21
		C71.525,25.333,74.072,11.995,66.319,6.572"/>
</g>
</svg>
